PathFileType	4	(X/Y/Z)	./resultDataOpenSim/trcMotMarkerGrf/sub06/qtm-13-01.trc
DataRate	CameraRate	NumFrames	NumMarkers	Units	OrigDataRate	OrigDataStartFrame	OrigNumFrames
250.000000	250.000000	12	24	m	250.000000	208	553
Frame#	Time	L.Toe.Tip			R.Toe.Tip			L.Ankle.Lat			R.Ankle.Lat			L.Ankle.Med			R.Ankle.Med			L.Heel			R.Heel			L.Knee.Lat			R.Knee.Lat			L.Knee.Med			R.Knee.Med			L.Thigh.Upper			R.Thigh.Upper			L.ASIS			R.ASIS			V.Sacral			L.Acromium			R.Acromium			C7			L.Elbow			R.Elbow			L.Wrist.Lat			R.Wrist.Lat
		X1	Y1	Z1	X2	Y2	Z2	X3	Y3	Z3	X4	Y4	Z4	X5	Y5	Z5	X6	Y6	Z6	X7	Y7	Z7	X8	Y8	Z8	X9	Y9	Z9	X10	Y10	Z10	X11	Y11	Z11	X12	Y12	Z12	X13	Y13	Z13	X14	Y14	Z14	X15	Y15	Z15	X16	Y16	Z16	X17	Y17	Z17	X18	Y18	Z18	X19	Y19	Z19	X20	Y20	Z20	X21	Y21	Z21	X22	Y22	Z22	X23	Y23	Z23	X24	Y24	Z24

208	0.828	0.085967195	-0.015677868	-0.044038897	-0.28605726	0.14754887	0.11324091	-0.035661149	0.021158444	-0.076175342	-0.32874798	0.27781874	0.12563505	-0.041918193	0.036368781	0.01051459	-0.28967899	0.26240382	0.044204163	-0.11400095	-0.0030888613	-0.035914533	-0.36905106	0.30791429	0.059402785	0.045924136	0.38823535	-0.093716865	0.014018323	0.40341842	0.18022734	0.0078536175	0.3916054	0.02505464	-0.0048359742	0.39574204	0.048399374	-0.050647664	0.76487949	-0.16673408	-0.12510072	0.75072924	0.174887	0.0027860733	0.81277102	-0.10693233	-0.041883917	0.81389888	0.13498011	-0.19961929	0.88726317	-0.011636393	-0.033796468	1.2929714	-0.19194364	-0.062339596	1.2942666	0.1588936	-0.1321274	1.3256643	-0.02739272	-0.14694347	1.0013145	-0.2788361	-0.15466824	1.0003753	0.26951322	0.029615526	0.82713636	-0.31772979	0.033786292	0.83467577	0.26384099
209	0.832	0.085905766	-0.015679519	-0.044019228	-0.26767142	0.14965411	0.11466024	-0.035680297	0.021191018	-0.0761682	-0.31300167	0.27904583	0.12618959	-0.041884929	0.036441828	0.010534085	-0.27390269	0.26372557	0.044539253	-0.1140758	-0.0029049029	-0.03598613	-0.35414001	0.30798034	0.059808585	0.047086451	0.38829193	-0.093650202	0.028800853	0.40839815	0.17933302	0.0085130077	0.39106043	0.025099651	0.0091688029	0.40049161	0.047496363	-0.045604769	0.76607857	-0.16649939	-0.11766249	0.75266765	0.17501664	0.0083647887	0.8132654	-0.10713899	-0.036134465	0.81570838	0.13537425	-0.1926532	0.88841211	-0.01266578	-0.027249627	1.2940145	-0.1922554	-0.05722263	1.2956331	0.15933589	-0.12553782	1.3270666	-0.027537668	-0.13798182	1.0018999	-0.28165147	-0.15188981	1.002223	0.26937991	0.044492237	0.83345557	-0.31937558	0.03324707	0.83343048	0.26586417
210	0.836	0.085851391	-0.015678648	-0.044014828	-0.24920172	0.15165048	0.11618594	-0.035708904	0.021284132	-0.076185445	-0.29726015	0.28007635	0.12677632	-0.041761206	0.036596558	0.010558384	-0.25814745	0.26487295	0.045038468	-0.11410525	-0.0026503238	-0.036011099	-0.33926379	0.3077424	0.060255867	0.04814947	0.38832575	-0.093684298	0.043354444	0.41359552	0.17839048	0.0092874424	0.39055745	0.025033554	0.023390091	0.40530762	0.046503809	-0.040772797	0.76721988	-0.16631521	-0.11020101	0.75464515	0.17514619	0.013787795	0.81382066	-0.10744647	-0.030249035	0.81745984	0.13568206	-0.18591916	0.88963176	-0.013353852	-0.02089158	1.2950664	-0.19257703	-0.052184078	1.2970365	0.15985832	-0.11895873	1.3285311	-0.027627333	-0.12882945	1.002444	-0.28449829	-0.14910142	1.0040385	0.26930286	0.059293336	0.83995072	-0.32089872	0.032609322	0.83229214	0.26791531
211	0.84	0.085808293	-0.015672592	-0.044019291	-0.23073245	0.1534743	0.11780023	-0.035806168	0.021419471	-0.076289487	-0.28149528	0.28091611	0.1274209	-0.041537448	0.036851741	0.010563844	-0.24242485	0.26582803	0.045632236	-0.11409548	-0.0023535732	-0.035993758	-0.32438114	0.30722164	0.060762664	0.049093253	0.38837257	-0.093814408	0.05767576	0.41899743	0.17739487	0.0099048618	0.39015544	0.024941252	0.037476715	0.41016492	0.045417328	-0.036108868	0.76833226	-0.16624696	-0.10271809	0.75665838	0.17527626	0.019039281	0.81441831	-0.10784792	-0.024202177	0.81916317	0.13588297	-0.17984596	0.89103834	-0.013555031	-0.014739114	1.2961395	-0.19288309	-0.047169205	1.2984562	0.16043789	-0.11239326	1.3300504	-0.027668271	-0.11948779	1.0029465	-0.28739226	-0.14628496	1.0058523	0.26926916	0.073991387	0.84657868	-0.32232218	0.031875236	0.83126229	0.26995442
212	0.844	0.085776769	-0.015661416	-0.044028935	-0.2123115	0.15510851	0.11944761	-0.036001675	0.021590918	-0.076516604	-0.26570576	0.2815834	0.12811818	-0.041246082	0.037206706	0.010509274	-0.22677781	0.26658331	0.046204357	-0.11407715	-0.0020404562	-0.035978179	-0.30946619	0.30646773	0.061351226	0.049896635	0.3884766	-0.094037078	0.071765885	0.42458127	0.17634567	0.010516688	0.38995422	0.024856594	0.051326955	0.41505013	0.044247201	-0.031593778	0.76944274	-0.16630648	-0.095215533	0.758704	0.17540741	0.024171667	0.81505433	-0.10831392	-0.017979384	0.82083519	0.1359499	-0.17436437	0.89263717	-0.01324323	-0.0087633813	1.2972549	-0.19315566	-0.042115618	1.2998702	0.16105439	-0.10586146	1.3316222	-0.027660545	-0.10997434	1.0034135	-0.2903379	-0.1434357	1.0076992	0.26927149	0.088599544	0.85331838	-0.32365093	0.031039222	0.83034906	0.27195281
213	0.848	0.085740769	-0.015650583	-0.044051589	-0.19395168	0.1565767	0.12106238	-0.036239578	0.021815694	-0.076830865	-0.24990258	0.28207442	0.12886303	-0.040980129	0.037631877	0.010352091	-0.21122354	0.26715087	0.046712112	-0.11406968	-0.0017194109	-0.036007794	-0.29453034	0.30553846	0.062060873	0.050555443	0.38866174	-0.094344989	0.085624678	0.43031001	0.17523977	0.011316316	0.39002876	0.024759006	0.064910072	0.41993338	0.043035733	-0.027215374	0.77055999	-0.16646572	-0.087695151	0.76077867	0.17554022	0.02926605	0.81573543	-0.10880527	-0.011573677	0.82249759	0.1358592	-0.16922059	0.89435811	-0.012533182	-0.0029308913	1.2984294	-0.19337993	-0.036964295	1.3012579	0.16168706	-0.099384103	1.3332358	-0.027595381	-0.10029393	1.0038607	-0.29333104	-0.14056592	1.0096118	0.26930834	0.10312998	0.86015678	-0.32489258	0.030105989	0.82956218	0.27390968
214	0.852	0.085674693	-0.015645876	-0.044107138	-0.17558138	0.15792983	0.12264055	-0.03642456	0.022110757	-0.077156043	-0.23409825	0.28233199	0.12966632	-0.040841031	0.038084696	0.010079648	-0.19571883	0.26753204	0.047204566	-0.11407304	-0.0013806705	-0.036103248	-0.27962117	0.30445701	0.062923404	0.051095474	0.38891953	-0.094716953	0.099253121	0.43614293	0.17407186	0.012383241	0.39037286	0.024629232	0.078160486	0.42478851	0.041841687	-0.02293072	0.77167465	-0.16667296	-0.08015876	0.76287909	0.17567521	0.034359554	0.81645783	-0.10929442	-0.0049813049	0.82417487	0.13559841	-0.1642207	0.89610315	-0.011611467	0.0027726952	1.2996688	-0.19353904	-0.031664918	1.3026066	0.16231187	-0.092972002	1.3348664	-0.02745588	-0.09041743	1.0043194	-0.29637514	-0.13768806	1.0116182	0.26936938	0.11754287	0.86706118	-0.32608561	0.029094001	0.82890826	0.27583848
215	0.856	0.085573929	-0.015645069	-0.044209133	-0.15709913	0.15920632	0.124217	-0.036513484	0.022465277	-0.077445195	-0.21829954	0.28227412	0.1305358	-0.040844952	0.038538982	0.0097296763	-0.18017265	0.26770532	0.04775981	-0.11408029	-0.001007704	-0.036264812	-0.26477275	0.30319894	0.06392748	0.051559995	0.38922612	-0.095117632	0.11266712	0.44204284	0.17283557	0.01371533	0.39090912	0.024484877	0.091093957	0.42963588	0.040691074	-0.01865995	0.77277191	-0.16685723	-0.072608181	0.76500192	0.17581294	0.039435919	0.81721005	-0.10977557	0.0017933013	0.82588547	0.13516329	-0.15919936	0.89779537	-0.010676791	0.0083478845	1.3009705	-0.19361754	-0.026187338	1.3039168	0.16290434	-0.086629916	1.3364866	-0.027223766	-0.080305083	1.0048337	-0.29950431	-0.13480408	1.0137438	0.26942713	0.13176431	0.87398332	-0.32728455	0.028021527	0.8283898	0.27775077
216	0.86	0.085466066	-0.015638525	-0.044349578	-0.1385008	0.16039444	0.12578283	-0.036534322	0.022849998	-0.077701311	-0.20250104	0.28188661	0.13145997	-0.040937068	0.038993436	0.0093602629	-0.16450056	0.26765781	0.048407204	-0.11408589	-0.00058549729	-0.036476816	-0.24996938	0.30172917	0.065031847	0.051982056	0.38956358	-0.095510822	0.12590653	0.44797566	0.17152302	0.015232717	0.39154666	0.024353704	0.10379995	0.43452161	0.039570171	-0.014321848	0.77385211	-0.16695067	-0.06504523	0.76714385	0.17595396	0.044468494	0.81799753	-0.11026024	0.0087288368	0.82763544	0.13455119	-0.1540931	0.89942935	-0.0098696525	0.013791228	1.3023292	-0.19360941	-0.02053306	1.3051965	0.16344227	-0.080362013	1.3380824	-0.026894638	-0.069978409	1.0054469	-0.30276665	-0.13191145	1.0160118	0.26944513	0.14575143	0.88089158	-0.32851399	0.026894784	0.82800731	0.27965686
217	0.864	0.085385398	-0.015618209	-0.04450333	-0.11985427	0.16146034	0.12728512	-0.036530415	0.023249188	-0.077945186	-0.18668735	0.28126643	0.13241499	-0.041077741	0.039458367	0.0090017035	-0.14869189	0.26741577	0.049098616	-0.1140867	-9.7368294e-05	-0.036712846	-0.23516814	0.30003667	0.066213052	0.052365915	0.38992556	-0.095871088	0.13901905	0.45390822	0.17013077	0.016818799	0.39222937	0.02423319	0.11635067	0.43947007	0.038448504	-0.0099005489	0.77494221	-0.16695003	-0.057471726	0.76930156	0.17609882	0.049425613	0.81884691	-0.11077417	0.015794641	0.82942203	0.13376472	-0.14901235	0.90105879	-0.0091938116	0.01910499	1.3037401	-0.19351793	-0.014723239	1.3064543	0.16390777	-0.07417287	1.3396565	-0.026488837	-0.059545644	1.0061868	-0.30616966	-0.12901441	1.0184381	0.26939107	0.15952116	0.88778924	-0.32975103	0.025712638	0.82776269	0.28157061
218	0.868	0.085334899	-0.015589303	-0.044643942	-0.10118721	0.16239792	0.12867807	-0.036520478	0.023670776	-0.078187894	-0.17084068	0.28053329	0.13338129	-0.041214229	0.039950872	0.008664111	-0.13279776	0.26703096	0.049778399	-0.11407597	0.00047931988	-0.036941325	-0.22034845	0.29813674	0.067481429	0.052698672	0.3903128	-0.096186749	0.15202605	0.45980917	0.16867508	0.018387564	0.39293923	0.02409779	0.12878872	0.44448624	0.03729083	-0.005474918	0.77608934	-0.16694209	-0.049889487	0.77147173	0.17624805	0.05428918	0.8197981	-0.11133929	0.022971697	0.8312416	0.13282685	-0.14408781	0.90271551	-0.0085381938	0.024302827	1.3051971	-0.19334957	-0.0087763781	1.3077022	0.16429264	-0.068065702	1.3412131	-0.026037177	-0.049092293	1.00706	-0.30964456	-0.12612449	1.0210257	0.26924072	0.17312149	0.89469902	-0.33095165	0.02447864	0.82765958	0.28350611
219	0.872	0.085274376	-0.015573621	-0.044761014	-0.082480412	0.16322456	0.1299373	-0.036499936	0.02413426	-0.078424231	-0.15494662	0.27972497	0.13434962	-0.041230928	0.040496297	0.0083680657	-0.11686263	0.2665401	0.050467758	-0.11403754	0.0011674613	-0.037128302	-0.2055274	0.29605829	0.068863782	0.052994215	0.39072692	-0.096462775	0.16488851	0.46566525	0.16720485	0.019898973	0.39367615	0.023932552	0.14110745	0.44957538	0.03607412	-0.0011621757	0.77733788	-0.16704234	-0.04230033	0.77365103	0.17640222	0.059114178	0.82090459	-0.11193967	0.030254985	0.83309049	0.13178221	-0.13931533	0.9043701	-0.0077934464	0.029405828	1.3066901	-0.19311407	-0.0027065811	1.308955	0.1646013	-0.062039564	1.3427405	-0.025556966	-0.038582888	1.0080627	-0.31304189	-0.1232484	1.0237628	0.26897603	0.1865894	0.90163726	-0.33208673	0.023201614	0.82769985	0.2854699
